<svg width="534" height="141" viewBox="0 0 534 141" fill="none" xmlns="http://www.w3.org/2000/svg">
<path d="M11.8609 67.9531C15.7255 69.9219 19.7724 71.3984 24.0016 72.3828C28.2307 73.3672 32.1682 73.8594 35.8141 73.8594C40.0068 73.8594 43.0693 73.2578 45.0016 72.0547C46.9703 70.8516 47.9547 69.2109 47.9547 67.1328C47.9547 66.4766 47.8271 65.8021 47.5719 65.1094C47.3531 64.4167 46.8974 63.7422 46.2047 63.0859C45.5484 62.3932 44.6187 61.7188 43.4156 61.0625C42.249 60.3698 40.7177 59.6953 38.8219 59.0391L29.0328 55.7031C22.0328 53.2969 16.7646 50.0521 13.2281 45.9688C9.69166 41.849 7.92343 36.9635 7.92343 31.3125C7.92343 27.6667 8.68906 24.1667 10.2203 20.8125C11.7516 17.4219 14.0667 14.4505 17.1656 11.8984C20.2646 9.3099 24.1656 7.25 28.8687 5.71875C33.6083 4.1875 39.15 3.42188 45.4937 3.42188C48.6292 3.42188 51.637 3.60417 54.5172 3.96875C57.3974 4.33333 60.0953 4.80729 62.6109 5.39062C65.163 5.97396 67.4963 6.64844 69.6109 7.41406C71.7255 8.14323 73.5849 8.8724 75.1891 9.60156L69.2828 20.2656C68.1161 19.5365 66.8766 18.8984 65.5641 18.3516C64.288 17.8047 62.9937 17.349 61.6812 16.9844C60.4052 16.6198 59.1474 16.3464 57.9078 16.1641C56.6682 15.9818 55.538 15.8906 54.5172 15.8906C52.7672 15.8906 51.2359 16.1276 49.9234 16.6016C48.6109 17.0391 47.499 17.6406 46.5875 18.4062C45.7125 19.1354 45.038 19.974 44.5641 20.9219C44.1266 21.8333 43.9078 22.7448 43.9078 23.6562C43.9078 24.4583 44.0901 25.2422 44.4547 26.0078C44.8557 26.737 45.512 27.4661 46.4234 28.1953C47.3713 28.888 48.5927 29.599 50.0875 30.3281C51.6187 31.0208 53.5146 31.75 55.775 32.5156L62.3375 34.7031C69.4469 37.0729 74.8792 40.3359 78.6344 44.4922C82.3896 48.6484 84.2672 53.6797 84.2672 59.5859C84.2672 63.5964 83.3557 67.2969 81.5328 70.6875C79.7463 74.0781 77.0667 77.013 73.4937 79.4922C69.9208 81.9349 65.4729 83.849 60.15 85.2344C54.8635 86.5833 48.7203 87.2578 41.7203 87.2578C38.3661 87.2578 35.1213 87.0755 31.9859 86.7109C28.887 86.3828 25.8427 85.8724 22.8531 85.1797C19.9 84.487 16.9833 83.612 14.1031 82.5547C11.2229 81.4974 8.3427 80.2578 5.46249 78.8359L11.8609 67.9531ZM110.384 17.2031H87.1962V4.67969H165.181V17.2031H141.993V86H110.384V17.2031ZM168.93 45.2031C168.93 39.0417 169.914 33.4089 171.883 28.3047C173.852 23.1641 176.787 18.7526 180.688 15.0703C184.589 11.388 189.456 8.52604 195.289 6.48438C201.123 4.44271 207.904 3.42188 215.633 3.42188C223.362 3.42188 230.144 4.44271 235.977 6.48438C241.81 8.52604 246.677 11.388 250.578 15.0703C254.479 18.7526 257.414 23.1641 259.383 28.3047C261.352 33.4089 262.336 39.0417 262.336 45.2031C262.336 51.4375 261.352 57.1432 259.383 62.3203C257.414 67.4974 254.479 71.9271 250.578 75.6094C246.677 79.2917 241.81 82.1536 235.977 84.1953C230.144 86.237 223.362 87.2578 215.633 87.2578C207.904 87.2578 201.123 86.237 195.289 84.1953C189.456 82.1536 184.589 79.2917 180.688 75.6094C176.787 71.9271 173.852 67.4974 171.883 62.3203C169.914 57.1432 168.93 51.4375 168.93 45.2031ZM215.633 75.9375C217.821 75.9375 219.753 75.5547 221.43 74.7891C223.107 74.0234 224.511 72.5286 225.641 70.3047C226.771 68.0807 227.628 64.9635 228.211 60.9531C228.795 56.9427 229.086 51.6927 229.086 45.2031C229.086 38.7865 228.795 33.5911 228.211 29.6172C227.628 25.6432 226.771 22.5625 225.641 20.375C224.511 18.1875 223.107 16.7109 221.43 15.9453C219.753 15.1797 217.821 14.7969 215.633 14.7969C213.446 14.7969 211.495 15.1797 209.782 15.9453C208.104 16.7109 206.701 18.1875 205.571 20.375C204.44 22.5625 203.584 25.6432 203 29.6172C202.417 33.5911 202.125 38.7865 202.125 45.2031C202.125 51.6927 202.417 56.9427 203 60.9531C203.584 64.9635 204.44 68.0807 205.571 70.3047C206.701 72.5286 208.104 74.0234 209.782 74.7891C211.495 75.5547 213.446 75.9375 215.633 75.9375ZM275 4.73438H321.867C327.919 4.73438 333.205 5.3724 337.726 6.64844C342.284 7.92448 346.075 9.71094 349.101 12.0078C352.164 14.3047 354.461 17.0573 355.992 20.2656C357.523 23.474 358.289 27.0104 358.289 30.875C358.289 35.651 357.159 39.8984 354.898 43.6172C352.638 47.2995 349.284 50.2344 344.836 52.4219L361.898 86.0547H326.187L313.281 56.5234H306.609V86H275V4.73438ZM308.523 46.625C311.112 46.625 313.427 46.2604 315.468 45.5312C317.51 44.8021 319.242 43.7812 320.664 42.4688C322.086 41.1198 323.179 39.5339 323.945 37.7109C324.711 35.8516 325.093 33.8281 325.093 31.6406C325.093 29.4531 324.711 27.4479 323.945 25.625C323.179 23.7656 322.086 22.1797 320.664 20.8672C319.242 19.5182 317.51 18.4792 315.468 17.75C313.427 17.0208 311.112 16.6562 308.523 16.6562H306.664L306.609 46.625H308.523ZM373.687 4.73438H442.374V17.2578H405.351L405.296 39.1875H433.624V51.7109H405.296V73.4766H442.374V86H373.687V4.73438ZM456.405 67.9531C460.269 69.9219 464.316 71.3984 468.545 72.3828C472.774 73.3672 476.712 73.8594 480.358 73.8594C484.551 73.8594 487.613 73.2578 489.545 72.0547C491.514 70.8516 492.498 69.2109 492.498 67.1328C492.498 66.4766 492.371 65.8021 492.116 65.1094C491.897 64.4167 491.441 63.7422 490.748 63.0859C490.092 62.3932 489.163 61.7188 487.959 61.0625C486.793 60.3698 485.261 59.6953 483.366 59.0391L473.577 55.7031C466.577 53.2969 461.308 50.0521 457.772 45.9688C454.235 41.849 452.467 36.9635 452.467 31.3125C452.467 27.6667 453.233 24.1667 454.764 20.8125C456.295 17.4219 458.61 14.4505 461.709 11.8984C464.808 9.3099 468.709 7.25 473.413 5.71875C478.152 4.1875 483.694 3.42188 490.038 3.42188C493.173 3.42188 496.181 3.60417 499.061 3.96875C501.941 4.33333 504.639 4.80729 507.155 5.39062C509.707 5.97396 512.04 6.64844 514.155 7.41406C516.269 8.14323 518.129 8.8724 519.733 9.60156L513.827 20.2656C512.66 19.5365 511.42 18.8984 510.108 18.3516C508.832 17.8047 507.538 17.349 506.225 16.9844C504.949 16.6198 503.691 16.3464 502.452 16.1641C501.212 15.9818 500.082 15.8906 499.061 15.8906C497.311 15.8906 495.78 16.1276 494.467 16.6016C493.155 17.0391 492.043 17.6406 491.131 18.4062C490.256 19.1354 489.582 19.974 489.108 20.9219C488.67 21.8333 488.452 22.7448 488.452 23.6562C488.452 24.4583 488.634 25.2422 488.998 26.0078C489.399 26.737 490.056 27.4661 490.967 28.1953C491.915 28.888 493.136 29.599 494.631 30.3281C496.163 31.0208 498.058 31.75 500.319 32.5156L506.881 34.7031C513.991 37.0729 519.423 40.3359 523.178 44.4922C526.933 48.6484 528.811 53.6797 528.811 59.5859C528.811 63.5964 527.899 67.2969 526.077 70.6875C524.29 74.0781 521.61 77.013 518.038 79.4922C514.465 81.9349 510.017 83.849 504.694 85.2344C499.407 86.5833 493.264 87.2578 486.264 87.2578C482.91 87.2578 479.665 87.0755 476.53 86.7109C473.431 86.3828 470.386 85.8724 467.397 85.1797C464.444 84.487 461.527 83.612 458.647 82.5547C455.767 81.4974 452.886 80.2578 450.006 78.8359L456.405 67.9531Z" fill="#71DBA6"/>
<path d="M158.527 71.2344C158.226 71.2344 158.076 71.0293 158.076 70.6191C158.076 70.209 158.185 69.9492 158.404 69.8398C158.65 69.7031 159.047 69.498 159.594 69.2246C160.168 68.9238 160.564 68.7324 160.783 68.6504C161.002 68.541 161.344 68.377 161.808 68.1582C162.273 67.9395 162.642 67.7891 162.916 67.707C163.217 67.625 163.572 67.5156 163.982 67.3789C164.666 67.1875 165.514 67.0918 166.525 67.0918C167.564 67.0918 168.617 67.4473 169.683 68.1582C170.777 68.8691 171.324 69.7988 171.324 70.9473C171.324 73.3262 170.285 76.4844 168.207 80.4219C166.129 84.332 163.463 88.4062 160.209 92.6445C156.955 96.8828 153.305 101.189 149.258 105.564C145.211 109.939 141.26 113.85 137.404 117.295C133.549 120.74 129.912 123.557 126.494 125.744C123.103 127.932 120.492 129.025 118.66 129.025C114.777 129.025 112.836 127.262 112.836 123.734C112.836 118.785 115.639 111.635 121.244 102.283C110.334 115.189 101.201 123.516 93.8456 127.262C91.9315 128.246 90.4686 128.738 89.4569 128.738C88.4452 128.738 87.201 128.123 85.7245 126.893C84.2752 125.635 83.5506 124.404 83.5506 123.201C83.5506 116.393 88.2811 106.863 97.742 94.6133C101.351 89.9375 105.849 84.7148 111.236 78.9453C106.533 83.0195 102.951 85.0566 100.49 85.0566C99.1776 85.0566 98.2069 84.4141 97.578 83.1289C97.0038 82.1992 96.7166 81.3242 96.7166 80.5039C96.7166 79.6562 97.2635 78.7402 98.3573 77.7559C99.451 76.7715 100.094 76.2793 100.285 76.2793C100.476 76.2793 100.654 76.3477 100.818 76.4844C100.982 76.6211 101.064 76.7441 101.064 76.8535C100.681 77.2637 100.49 77.5371 100.49 77.6738C100.49 77.7832 100.654 77.8379 100.982 77.8379C101.31 77.8379 104.045 76.2793 109.185 73.1621C114.326 70.0176 117.142 68.4453 117.635 68.4453C119.056 68.4453 120.424 68.8418 121.736 69.6348C123.049 70.4004 123.705 71.0566 123.705 71.6035C123.705 72.123 123.431 72.8203 122.885 73.6953C122.338 74.5703 119.084 78.8633 113.123 86.5742C107.162 94.2578 102.828 100.082 100.121 104.047C97.4139 107.984 95.4315 111.225 94.1737 113.768C92.9159 116.283 92.287 117.814 92.287 118.361C92.287 118.908 92.369 119.182 92.5331 119.182C93.6815 119.182 97.7831 115.723 104.838 108.805C111.92 101.859 118.66 95.0098 125.058 88.2559C131.457 81.4746 134.93 77.7148 135.476 76.9766C136.051 76.2383 136.666 75.7188 137.322 75.418C137.978 75.0898 138.963 74.9258 140.275 74.9258C143.939 74.9258 145.771 75.623 145.771 77.0176C145.771 77.5918 144.965 78.8086 143.351 80.668C141.765 82.5273 140.644 83.8809 139.988 84.7285C136.57 89.0762 132.756 95.2012 128.545 103.104C124.361 111.006 122.269 116.064 122.269 118.279C122.269 118.881 122.461 119.182 122.844 119.182C123.254 119.182 124.43 118.416 126.371 116.885C128.34 115.326 130.924 113.016 134.123 109.953C137.322 106.863 140.959 103.049 145.033 98.5098C149.107 93.9707 152.99 88.9395 156.681 83.416C160.4 77.8652 162.26 74.3789 162.26 72.957C162.26 71.5352 161.713 70.8242 160.619 70.8242L158.527 71.2344ZM186.19 97.3203C186.19 99.125 185.451 100.711 183.975 102.078C182.526 103.445 180.871 104.129 179.012 104.129C178.41 104.129 178.014 103.992 177.823 103.719C177.631 103.418 177.535 103.035 177.535 102.57C177.535 102.105 177.59 101.654 177.7 101.217C176.715 101.545 175.621 102.051 174.418 102.734C173.215 103.418 171.739 104.43 169.989 105.77C168.239 107.109 167.364 108.107 167.364 108.764C167.364 108.982 167.678 109.092 168.307 109.092C168.963 109.092 169.961 108.873 171.301 108.436C172.641 107.971 173.571 107.738 174.09 107.738C174.637 107.738 174.993 107.766 175.157 107.82C175.512 108.012 175.895 108.436 176.305 109.092C176.715 109.721 176.92 110.227 176.92 110.609C176.92 110.965 176.565 111.443 175.854 112.045C175.143 112.646 174.336 113.111 173.434 113.439C172.532 113.74 171.93 113.973 171.629 114.137C165.86 117.363 162.975 119.578 162.975 120.781C162.975 122.914 164.793 123.98 168.43 123.98C170.754 123.98 173.092 123.242 175.444 121.766C177.44 120.508 179.231 119.236 180.817 117.951C182.43 116.639 183.442 115.832 183.852 115.531C184.289 115.23 184.618 115.08 184.836 115.08C185.547 115.08 185.903 115.873 185.903 117.459C185.903 119.045 185.807 120.098 185.616 120.617C185.424 121.109 184.877 121.725 183.975 122.463C178.123 127.221 172.586 129.6 167.364 129.6C164.575 129.6 162.346 129.217 160.678 128.451C157.616 127.057 156.084 124.924 156.084 122.053C156.084 118.279 158.696 115.422 163.918 113.48C162.879 113.016 162.209 112.428 161.909 111.717C161.608 110.979 161.457 109.816 161.457 108.23C161.457 106.617 162.196 104.922 163.672 103.145C165.176 101.34 167.008 99.8633 169.168 98.7148C173.981 96.1172 178.274 94.8184 182.047 94.8184C182.95 94.8184 183.866 95.0371 184.795 95.4746C185.725 95.9121 186.19 96.5273 186.19 97.3203ZM191.663 119.797L191.622 120.453C191.622 121.137 191.882 121.725 192.401 122.217C192.921 122.709 193.399 122.955 193.837 122.955C197.118 122.955 200.016 122.463 202.532 121.479C205.075 120.494 206.346 119.51 206.346 118.525C206.346 118.061 205.882 117.664 204.952 117.336C204.05 116.98 202.505 116.557 200.317 116.064C198.157 115.545 196.585 115.148 195.6 114.875C194.616 114.574 193.837 114.301 193.263 114.055C192.688 113.809 192.1 113.467 191.499 113.029C190.214 112.127 189.571 110.787 189.571 109.01C189.571 107.205 190.227 105.428 191.54 103.678C192.88 101.9 194.548 100.383 196.544 99.125C198.54 97.8672 200.686 96.7598 202.983 95.8027C207.522 93.916 211.337 92.9727 214.427 92.9727C217.462 92.9727 219.335 93.6289 220.046 94.9414C220.264 95.4062 220.374 95.9258 220.374 96.5V96.7871C220.374 98.2363 220.059 99.3711 219.43 100.191C218.829 101.012 217.858 101.75 216.518 102.406C215.206 103.062 214.153 103.391 213.36 103.391C212.595 103.391 212.102 103.336 211.884 103.227C211.692 103.117 211.528 102.98 211.391 102.816C211.255 102.625 211.077 102.488 210.858 102.406C210.667 102.324 210.571 102.119 210.571 101.791C210.571 101.463 210.708 101.135 210.981 100.807C211.255 100.451 211.446 100.082 211.555 99.6992C209.751 99.7812 207.864 100.205 205.895 100.971C203.927 101.709 202.231 102.543 200.809 103.473C199.415 104.402 198.253 105.291 197.323 106.139C196.393 106.986 195.929 107.615 195.929 108.025C195.929 108.408 196.557 108.723 197.815 108.969C203.475 110.09 207.194 111.061 208.971 111.881C210.749 112.701 211.979 113.631 212.663 114.67C213.346 115.709 213.688 116.652 213.688 117.5C213.688 119.25 212.991 120.904 211.596 122.463C210.202 124.021 208.479 125.293 206.429 126.277C202.026 128.438 198.184 129.518 194.903 129.518C191.649 129.518 189.393 129.012 188.136 128C186.905 127.016 186.29 125.84 186.29 124.473C186.29 123.105 186.632 121.848 187.315 120.699C188.026 119.523 188.929 118.936 190.022 118.936C191.116 118.936 191.663 119.223 191.663 119.797ZM248.816 75.1719L250.497 75.582C250.743 75.582 250.962 75.7051 251.154 75.9512C251.345 76.1973 251.441 76.4297 251.441 76.6484C251.441 76.8672 251.154 77.4551 250.579 78.4121C250.005 79.3691 249.322 80.4629 248.529 81.6934C247.763 82.8965 247.353 83.5527 247.298 83.6621C249.431 83.498 250.935 83.416 251.81 83.416C252.712 83.416 253.327 83.4844 253.656 83.6211C253.984 83.7305 254.353 84.0723 254.763 84.6465C255.2 85.1934 255.597 85.6172 255.952 85.918C256.308 86.1914 256.486 86.6152 256.486 87.1895C256.486 87.7637 256.13 88.2559 255.419 88.666C254.736 89.0488 253.997 89.2812 253.204 89.3633C246.861 89.9922 243.361 90.3203 242.704 90.3477C240.49 93.7383 237.386 99.0293 233.394 106.221C229.429 113.385 227.324 117.869 227.077 119.674C226.968 120.494 226.913 121.164 226.913 121.684C226.913 122.75 227.474 123.283 228.595 123.283C229.716 123.283 230.96 122.859 232.327 122.012C233.695 121.137 234.952 120.193 236.101 119.182C239.163 116.447 240.804 115.08 241.023 115.08C241.734 115.08 242.089 116.311 242.089 118.771C242.089 120.111 241.474 121.314 240.243 122.381C237.482 124.76 235.158 126.551 233.271 127.754C231.384 128.957 229.497 129.559 227.611 129.559C227.2 129.559 226.818 129.518 226.462 129.436C224.275 129.025 222.661 128.232 221.622 127.057C220.611 125.854 220.105 124.24 220.105 122.217C220.132 120.193 220.734 117.746 221.909 114.875C223.113 111.977 224.616 108.9 226.421 105.646C229.374 100.342 232.327 95.3652 235.281 90.7168L233.722 90.9219C230.55 91.2773 228.704 91.4551 228.185 91.4551H227.816C227.023 91.4551 226.257 91.3047 225.519 91.0039C224.781 90.6758 224.411 90.2793 224.411 89.8145C224.411 89.3496 224.603 88.8984 224.986 88.4609C225.396 88.0234 225.642 87.6816 225.724 87.4355C225.915 86.834 226.626 86.1641 227.857 85.4258C229.115 84.6875 230.058 84.3047 230.687 84.2773C231.316 84.2227 231.917 84.1816 232.491 84.1543C233.093 84.127 233.749 84.0996 234.46 84.0723C235.199 84.0449 235.759 84.0176 236.142 83.9902L239.833 83.8262C242.13 80.3809 243.702 78.166 244.55 77.1816C245.425 76.1973 245.931 75.6641 246.068 75.582C246.204 75.4727 246.478 75.418 246.888 75.418L248.816 75.1719ZM323.91 112.865L324.239 114.424C324.239 115.08 323.897 115.859 323.213 116.762C321.408 119.113 318.51 121.82 314.518 124.883C310.553 127.918 307.627 129.436 305.74 129.436C303.854 129.436 302.377 128.889 301.311 127.795C300.244 126.674 299.711 125.402 299.711 123.98C299.711 122.285 301.489 118.539 305.043 112.742C310.375 104.129 317.184 94.0664 325.469 82.5547C323.719 84.3594 319.071 89.2266 311.524 97.1562C294.817 114.656 285.055 124.568 282.239 126.893C281.774 127.275 281.09 127.467 280.188 127.467C279.313 127.467 278.383 127.111 277.399 126.4C276.414 125.662 275.922 124.842 275.922 123.939V123.734C276.031 122.586 278.67 116.967 283.838 106.877C289.006 96.7871 293.34 88.7617 296.84 82.8008C291.672 88.4883 286.449 94.832 281.172 101.832C271.137 115.121 263.795 126.441 259.147 135.793C258.737 136.668 258.231 137.105 257.629 137.105C257.028 137.105 256.153 136.955 255.004 136.654C252.598 135.998 251.395 134.85 251.395 133.209C251.395 132.225 253.405 128.711 257.424 122.668C261.444 116.598 266.106 109.98 271.41 102.816C276.715 95.625 282.211 88.707 287.899 82.0625C295.746 72.875 300.791 68.2812 303.033 68.2812C303.389 68.2812 303.731 68.377 304.059 68.5684C304.387 68.7324 304.592 68.8145 304.674 68.8145C304.756 68.8145 304.838 68.7734 304.92 68.6914C305.276 68.2539 305.973 68.0352 307.012 68.0352C308.078 68.0352 309.104 68.2402 310.088 68.6504C311.1 69.0605 311.606 69.5254 311.606 70.0449C311.606 70.373 310.239 72.9844 307.504 77.8789C298.344 94.1211 292.192 105.277 289.047 111.348C292.055 107.711 296.348 102.885 301.926 96.8691C307.531 90.8535 313.41 84.8516 319.563 78.8633C327.574 71.0977 332.36 67.2148 333.918 67.2148C334.547 67.2148 335.34 67.3516 336.297 67.625C337.992 68.1172 339.619 68.3633 341.178 68.3633C341.615 68.4453 341.985 68.6367 342.285 68.9375C342.614 69.2109 342.778 69.498 342.778 69.7988C342.778 70.0996 342.696 70.3457 342.531 70.5371C333.645 82.3496 326.153 92.7676 320.055 101.791C313.957 110.814 310.198 116.912 308.776 120.084C311.647 119.482 315.926 116.051 321.614 109.789C321.86 109.461 322.037 109.242 322.147 109.133C322.256 109.023 322.352 108.914 322.434 108.805C322.899 108.258 323.254 108.6 323.5 109.83C323.61 110.541 323.678 111.047 323.705 111.348C323.76 111.621 323.801 111.922 323.828 112.25C323.883 112.551 323.91 112.756 323.91 112.865ZM356.413 96.7461C357.233 96.7461 358.067 97.1152 358.915 97.8535C359.79 98.5918 360.227 99.7266 360.227 101.258C360.227 102.762 359.694 104.73 358.628 107.164C357.561 109.57 356.098 112.031 354.239 114.547C352.38 117.035 350.329 119.387 348.087 121.602C345.872 123.789 343.466 125.594 340.868 127.016C338.298 128.41 335.96 129.107 333.854 129.107C331.749 129.107 330.053 128.451 328.768 127.139C327.51 125.799 326.882 123.953 326.882 121.602C326.882 119.223 327.456 116.598 328.604 113.727C329.78 110.855 331.284 108.326 333.116 106.139C334.948 103.924 336.93 101.941 339.063 100.191C343.52 96.6094 347.43 94.8184 350.794 94.8184C352.298 94.8184 353.432 95.1875 354.198 95.9258C354.471 96.1719 354.608 96.3906 354.608 96.582V96.8281C354.991 96.7734 355.592 96.7461 356.413 96.7461ZM352.27 102.201H351.983C351.026 102.201 350.548 101.504 350.548 100.109C348.551 100.766 346.46 101.914 344.272 103.555C342.085 105.195 340.13 107.137 338.407 109.379C334.907 113.863 333.13 117.65 333.075 120.74C333.075 122.271 333.635 123.037 334.757 123.037C335.878 123.037 337.546 122.299 339.76 120.822C341.975 119.346 344.163 117.24 346.323 114.506C348.51 111.771 350.137 109.406 351.204 107.41C352.298 105.387 352.844 104.02 352.844 103.309C352.844 102.57 352.653 102.201 352.27 102.201ZM389.695 96.7461C390.515 96.7461 391.349 97.1152 392.197 97.8535C393.072 98.5918 393.509 99.7266 393.509 101.258C393.509 102.762 392.976 104.73 391.909 107.164C390.843 109.57 389.38 112.031 387.521 114.547C385.661 117.035 383.611 119.387 381.368 121.602C379.154 123.789 376.747 125.594 374.15 127.016C371.579 128.41 369.241 129.107 367.136 129.107C365.03 129.107 363.335 128.451 362.05 127.139C360.792 125.799 360.163 123.953 360.163 121.602C360.163 119.223 360.738 116.598 361.886 113.727C363.062 110.855 364.566 108.326 366.398 106.139C368.23 103.924 370.212 101.941 372.345 100.191C376.802 96.6094 380.712 94.8184 384.075 94.8184C385.579 94.8184 386.714 95.1875 387.48 95.9258C387.753 96.1719 387.89 96.3906 387.89 96.582V96.8281C388.273 96.7734 388.874 96.7461 389.695 96.7461ZM385.552 102.201H385.265C384.308 102.201 383.829 101.504 383.829 100.109C381.833 100.766 379.741 101.914 377.554 103.555C375.366 105.195 373.411 107.137 371.689 109.379C368.189 113.863 366.411 117.65 366.357 120.74C366.357 122.271 366.917 123.037 368.038 123.037C369.159 123.037 370.827 122.299 373.042 120.822C375.257 119.346 377.445 117.24 379.605 114.506C381.792 111.771 383.419 109.406 384.486 107.41C385.579 105.387 386.126 104.02 386.126 103.309C386.126 102.57 385.935 102.201 385.552 102.201ZM408.539 105.646C414.992 98.3184 420.488 94.6543 425.027 94.6543C426.148 94.6543 427.064 94.9961 427.775 95.6797C428.513 96.3359 428.883 97.1973 428.883 98.2637C428.883 99.3301 428.117 101.121 426.586 103.637C425.082 106.125 423.687 108.23 422.402 109.953C421.718 110.828 420.939 111.266 420.064 111.266C419.216 111.266 418.547 110.951 418.054 110.322C417.59 109.693 417.357 108.955 417.357 108.107C417.357 106.221 418.369 104.088 420.392 101.709L420.31 101.627C419.408 101.709 417.166 103.486 413.584 106.959C410.029 110.432 406.994 113.549 404.478 116.311C401.99 119.045 399.283 122.381 396.357 126.318C395.509 127.494 394.785 128.082 394.183 128.082C393.609 128.082 392.843 127.904 391.886 127.549C390.902 127.166 390.314 126.893 390.123 126.729C389.904 126.564 389.795 126.291 389.795 125.908C389.795 125.525 389.904 125.088 390.123 124.596C390.341 124.076 390.752 123.352 391.353 122.422C391.927 121.492 392.802 119.988 393.978 117.91C395.181 115.832 397.041 112.688 399.556 108.477C402.072 104.266 403.576 101.723 404.068 100.848C405.107 99.043 405.955 97.7305 406.611 96.9102C407.841 95.3516 409.92 94.5723 412.845 94.5723C413.502 94.5723 413.83 94.9824 413.83 95.8027C413.83 97.0879 412.64 99.5078 410.261 103.062L408.539 105.646ZM431.526 119.797L431.485 120.453C431.485 121.137 431.744 121.725 432.264 122.217C432.783 122.709 433.262 122.955 433.699 122.955C436.981 122.955 439.879 122.463 442.395 121.479C444.938 120.494 446.209 119.51 446.209 118.525C446.209 118.061 445.744 117.664 444.815 117.336C443.912 116.98 442.367 116.557 440.18 116.064C438.02 115.545 436.447 115.148 435.463 114.875C434.479 114.574 433.699 114.301 433.125 114.055C432.551 113.809 431.963 113.467 431.361 113.029C430.076 112.127 429.434 110.787 429.434 109.01C429.434 107.205 430.09 105.428 431.402 103.678C432.742 101.9 434.41 100.383 436.406 99.125C438.402 97.8672 440.549 96.7598 442.846 95.8027C447.385 93.916 451.199 92.9727 454.289 92.9727C457.324 92.9727 459.197 93.6289 459.908 94.9414C460.127 95.4062 460.236 95.9258 460.236 96.5V96.7871C460.236 98.2363 459.922 99.3711 459.293 100.191C458.692 101.012 457.721 101.75 456.381 102.406C455.069 103.062 454.016 103.391 453.223 103.391C452.457 103.391 451.965 103.336 451.746 103.227C451.555 103.117 451.391 102.98 451.254 102.816C451.117 102.625 450.94 102.488 450.721 102.406C450.529 102.324 450.434 102.119 450.434 101.791C450.434 101.463 450.57 101.135 450.844 100.807C451.117 100.451 451.309 100.082 451.418 99.6992C449.613 99.7812 447.727 100.205 445.758 100.971C443.789 101.709 442.094 102.543 440.672 103.473C439.277 104.402 438.115 105.291 437.186 106.139C436.256 106.986 435.791 107.615 435.791 108.025C435.791 108.408 436.42 108.723 437.678 108.969C443.338 110.09 447.057 111.061 448.834 111.881C450.611 112.701 451.842 113.631 452.526 114.67C453.209 115.709 453.551 116.652 453.551 117.5C453.551 119.25 452.854 120.904 451.459 122.463C450.065 124.021 448.342 125.293 446.291 126.277C441.889 128.438 438.047 129.518 434.766 129.518C431.512 129.518 429.256 129.012 427.998 128C426.768 127.016 426.152 125.84 426.152 124.473C426.152 123.105 426.494 121.848 427.178 120.699C427.889 119.523 428.791 118.936 429.885 118.936C430.979 118.936 431.526 119.223 431.526 119.797Z" fill="#EDFFFF"/>
<path d="M159.527 74.2344C159.226 74.2344 159.076 74.0293 159.076 73.6191C159.076 73.209 159.185 72.9492 159.404 72.8398C159.65 72.7031 160.047 72.498 160.594 72.2246C161.168 71.9238 161.564 71.7324 161.783 71.6504C162.002 71.541 162.344 71.377 162.808 71.1582C163.273 70.9395 163.642 70.7891 163.916 70.707C164.217 70.625 164.572 70.5156 164.982 70.3789C165.666 70.1875 166.514 70.0918 167.525 70.0918C168.564 70.0918 169.617 70.4473 170.683 71.1582C171.777 71.8691 172.324 72.7988 172.324 73.9473C172.324 76.3262 171.285 79.4844 169.207 83.4219C167.129 87.332 164.463 91.4062 161.209 95.6445C157.955 99.8828 154.305 104.189 150.258 108.564C146.211 112.939 142.26 116.85 138.404 120.295C134.549 123.74 130.912 126.557 127.494 128.744C124.103 130.932 121.492 132.025 119.66 132.025C115.777 132.025 113.836 130.262 113.836 126.734C113.836 121.785 116.639 114.635 122.244 105.283C111.334 118.189 102.201 126.516 94.8456 130.262C92.9315 131.246 91.4686 131.738 90.4569 131.738C89.4452 131.738 88.201 131.123 86.7245 129.893C85.2752 128.635 84.5506 127.404 84.5506 126.201C84.5506 119.393 89.2811 109.863 98.742 97.6133C102.351 92.9375 106.849 87.7148 112.236 81.9453C107.533 86.0195 103.951 88.0566 101.49 88.0566C100.178 88.0566 99.2069 87.4141 98.578 86.1289C98.0038 85.1992 97.7166 84.3242 97.7166 83.5039C97.7166 82.6562 98.2635 81.7402 99.3573 80.7559C100.451 79.7715 101.094 79.2793 101.285 79.2793C101.476 79.2793 101.654 79.3477 101.818 79.4844C101.982 79.6211 102.064 79.7441 102.064 79.8535C101.681 80.2637 101.49 80.5371 101.49 80.6738C101.49 80.7832 101.654 80.8379 101.982 80.8379C102.31 80.8379 105.045 79.2793 110.185 76.1621C115.326 73.0176 118.142 71.4453 118.635 71.4453C120.056 71.4453 121.424 71.8418 122.736 72.6348C124.049 73.4004 124.705 74.0566 124.705 74.6035C124.705 75.123 124.431 75.8203 123.885 76.6953C123.338 77.5703 120.084 81.8633 114.123 89.5742C108.162 97.2578 103.828 103.082 101.121 107.047C98.4139 110.984 96.4315 114.225 95.1737 116.768C93.9159 119.283 93.287 120.814 93.287 121.361C93.287 121.908 93.369 122.182 93.5331 122.182C94.6815 122.182 98.7831 118.723 105.838 111.805C112.92 104.859 119.66 98.0098 126.058 91.2559C132.457 84.4746 135.93 80.7148 136.476 79.9766C137.051 79.2383 137.666 78.7188 138.322 78.418C138.978 78.0898 139.963 77.9258 141.275 77.9258C144.939 77.9258 146.771 78.623 146.771 80.0176C146.771 80.5918 145.965 81.8086 144.351 83.668C142.765 85.5273 141.644 86.8809 140.988 87.7285C137.57 92.0762 133.756 98.2012 129.545 106.104C125.361 114.006 123.269 119.064 123.269 121.279C123.269 121.881 123.461 122.182 123.844 122.182C124.254 122.182 125.43 121.416 127.371 119.885C129.34 118.326 131.924 116.016 135.123 112.953C138.322 109.863 141.959 106.049 146.033 101.51C150.107 96.9707 153.99 91.9395 157.681 86.416C161.4 80.8652 163.26 77.3789 163.26 75.957C163.26 74.5352 162.713 73.8242 161.619 73.8242L159.527 74.2344ZM187.19 100.32C187.19 102.125 186.451 103.711 184.975 105.078C183.526 106.445 181.871 107.129 180.012 107.129C179.41 107.129 179.014 106.992 178.823 106.719C178.631 106.418 178.535 106.035 178.535 105.57C178.535 105.105 178.59 104.654 178.7 104.217C177.715 104.545 176.621 105.051 175.418 105.734C174.215 106.418 172.739 107.43 170.989 108.77C169.239 110.109 168.364 111.107 168.364 111.764C168.364 111.982 168.678 112.092 169.307 112.092C169.963 112.092 170.961 111.873 172.301 111.436C173.641 110.971 174.571 110.738 175.09 110.738C175.637 110.738 175.993 110.766 176.157 110.82C176.512 111.012 176.895 111.436 177.305 112.092C177.715 112.721 177.92 113.227 177.92 113.609C177.92 113.965 177.565 114.443 176.854 115.045C176.143 115.646 175.336 116.111 174.434 116.439C173.532 116.74 172.93 116.973 172.629 117.137C166.86 120.363 163.975 122.578 163.975 123.781C163.975 125.914 165.793 126.98 169.43 126.98C171.754 126.98 174.092 126.242 176.444 124.766C178.44 123.508 180.231 122.236 181.817 120.951C183.43 119.639 184.442 118.832 184.852 118.531C185.289 118.23 185.618 118.08 185.836 118.08C186.547 118.08 186.903 118.873 186.903 120.459C186.903 122.045 186.807 123.098 186.616 123.617C186.424 124.109 185.877 124.725 184.975 125.463C179.123 130.221 173.586 132.6 168.364 132.6C165.575 132.6 163.346 132.217 161.678 131.451C158.616 130.057 157.084 127.924 157.084 125.053C157.084 121.279 159.696 118.422 164.918 116.48C163.879 116.016 163.209 115.428 162.909 114.717C162.608 113.979 162.457 112.816 162.457 111.23C162.457 109.617 163.196 107.922 164.672 106.145C166.176 104.34 168.008 102.863 170.168 101.715C174.981 99.1172 179.274 97.8184 183.047 97.8184C183.95 97.8184 184.866 98.0371 185.795 98.4746C186.725 98.9121 187.19 99.5273 187.19 100.32ZM192.663 122.797L192.622 123.453C192.622 124.137 192.882 124.725 193.401 125.217C193.921 125.709 194.399 125.955 194.837 125.955C198.118 125.955 201.016 125.463 203.532 124.479C206.075 123.494 207.346 122.51 207.346 121.525C207.346 121.061 206.882 120.664 205.952 120.336C205.05 119.98 203.505 119.557 201.317 119.064C199.157 118.545 197.585 118.148 196.6 117.875C195.616 117.574 194.837 117.301 194.263 117.055C193.688 116.809 193.1 116.467 192.499 116.029C191.214 115.127 190.571 113.787 190.571 112.01C190.571 110.205 191.227 108.428 192.54 106.678C193.88 104.9 195.548 103.383 197.544 102.125C199.54 100.867 201.686 99.7598 203.983 98.8027C208.522 96.916 212.337 95.9727 215.427 95.9727C218.462 95.9727 220.335 96.6289 221.046 97.9414C221.264 98.4062 221.374 98.9258 221.374 99.5V99.7871C221.374 101.236 221.059 102.371 220.43 103.191C219.829 104.012 218.858 104.75 217.518 105.406C216.206 106.062 215.153 106.391 214.36 106.391C213.595 106.391 213.102 106.336 212.884 106.227C212.692 106.117 212.528 105.98 212.391 105.816C212.255 105.625 212.077 105.488 211.858 105.406C211.667 105.324 211.571 105.119 211.571 104.791C211.571 104.463 211.708 104.135 211.981 103.807C212.255 103.451 212.446 103.082 212.555 102.699C210.751 102.781 208.864 103.205 206.895 103.971C204.927 104.709 203.231 105.543 201.809 106.473C200.415 107.402 199.253 108.291 198.323 109.139C197.393 109.986 196.929 110.615 196.929 111.025C196.929 111.408 197.557 111.723 198.815 111.969C204.475 113.09 208.194 114.061 209.971 114.881C211.749 115.701 212.979 116.631 213.663 117.67C214.346 118.709 214.688 119.652 214.688 120.5C214.688 122.25 213.991 123.904 212.596 125.463C211.202 127.021 209.479 128.293 207.429 129.277C203.026 131.438 199.184 132.518 195.903 132.518C192.649 132.518 190.393 132.012 189.136 131C187.905 130.016 187.29 128.84 187.29 127.473C187.29 126.105 187.632 124.848 188.315 123.699C189.026 122.523 189.929 121.936 191.022 121.936C192.116 121.936 192.663 122.223 192.663 122.797ZM249.816 78.1719L251.497 78.582C251.743 78.582 251.962 78.7051 252.154 78.9512C252.345 79.1973 252.441 79.4297 252.441 79.6484C252.441 79.8672 252.154 80.4551 251.579 81.4121C251.005 82.3691 250.322 83.4629 249.529 84.6934C248.763 85.8965 248.353 86.5527 248.298 86.6621C250.431 86.498 251.935 86.416 252.81 86.416C253.712 86.416 254.327 86.4844 254.656 86.6211C254.984 86.7305 255.353 87.0723 255.763 87.6465C256.2 88.1934 256.597 88.6172 256.952 88.918C257.308 89.1914 257.486 89.6152 257.486 90.1895C257.486 90.7637 257.13 91.2559 256.419 91.666C255.736 92.0488 254.997 92.2812 254.204 92.3633C247.861 92.9922 244.361 93.3203 243.704 93.3477C241.49 96.7383 238.386 102.029 234.394 109.221C230.429 116.385 228.324 120.869 228.077 122.674C227.968 123.494 227.913 124.164 227.913 124.684C227.913 125.75 228.474 126.283 229.595 126.283C230.716 126.283 231.96 125.859 233.327 125.012C234.695 124.137 235.952 123.193 237.101 122.182C240.163 119.447 241.804 118.08 242.023 118.08C242.734 118.08 243.089 119.311 243.089 121.771C243.089 123.111 242.474 124.314 241.243 125.381C238.482 127.76 236.158 129.551 234.271 130.754C232.384 131.957 230.497 132.559 228.611 132.559C228.2 132.559 227.818 132.518 227.462 132.436C225.275 132.025 223.661 131.232 222.622 130.057C221.611 128.854 221.105 127.24 221.105 125.217C221.132 123.193 221.734 120.746 222.909 117.875C224.113 114.977 225.616 111.9 227.421 108.646C230.374 103.342 233.327 98.3652 236.281 93.7168L234.722 93.9219C231.55 94.2773 229.704 94.4551 229.185 94.4551H228.816C228.023 94.4551 227.257 94.3047 226.519 94.0039C225.781 93.6758 225.411 93.2793 225.411 92.8145C225.411 92.3496 225.603 91.8984 225.986 91.4609C226.396 91.0234 226.642 90.6816 226.724 90.4355C226.915 89.834 227.626 89.1641 228.857 88.4258C230.115 87.6875 231.058 87.3047 231.687 87.2773C232.316 87.2227 232.917 87.1816 233.491 87.1543C234.093 87.127 234.749 87.0996 235.46 87.0723C236.199 87.0449 236.759 87.0176 237.142 86.9902L240.833 86.8262C243.13 83.3809 244.702 81.166 245.55 80.1816C246.425 79.1973 246.931 78.6641 247.068 78.582C247.204 78.4727 247.478 78.418 247.888 78.418L249.816 78.1719ZM324.91 115.865L325.239 117.424C325.239 118.08 324.897 118.859 324.213 119.762C322.408 122.113 319.51 124.82 315.518 127.883C311.553 130.918 308.627 132.436 306.74 132.436C304.854 132.436 303.377 131.889 302.311 130.795C301.244 129.674 300.711 128.402 300.711 126.98C300.711 125.285 302.489 121.539 306.043 115.742C311.375 107.129 318.184 97.0664 326.469 85.5547C324.719 87.3594 320.071 92.2266 312.524 100.156C295.817 117.656 286.055 127.568 283.239 129.893C282.774 130.275 282.09 130.467 281.188 130.467C280.313 130.467 279.383 130.111 278.399 129.4C277.414 128.662 276.922 127.842 276.922 126.939V126.734C277.031 125.586 279.67 119.967 284.838 109.877C290.006 99.7871 294.34 91.7617 297.84 85.8008C292.672 91.4883 287.449 97.832 282.172 104.832C272.137 118.121 264.795 129.441 260.147 138.793C259.737 139.668 259.231 140.105 258.629 140.105C258.028 140.105 257.153 139.955 256.004 139.654C253.598 138.998 252.395 137.85 252.395 136.209C252.395 135.225 254.405 131.711 258.424 125.668C262.444 119.598 267.106 112.98 272.41 105.816C277.715 98.625 283.211 91.707 288.899 85.0625C296.746 75.875 301.791 71.2812 304.033 71.2812C304.389 71.2812 304.731 71.377 305.059 71.5684C305.387 71.7324 305.592 71.8145 305.674 71.8145C305.756 71.8145 305.838 71.7734 305.92 71.6914C306.276 71.2539 306.973 71.0352 308.012 71.0352C309.078 71.0352 310.104 71.2402 311.088 71.6504C312.1 72.0605 312.606 72.5254 312.606 73.0449C312.606 73.373 311.239 75.9844 308.504 80.8789C299.344 97.1211 293.192 108.277 290.047 114.348C293.055 110.711 297.348 105.885 302.926 99.8691C308.531 93.8535 314.41 87.8516 320.563 81.8633C328.574 74.0977 333.36 70.2148 334.918 70.2148C335.547 70.2148 336.34 70.3516 337.297 70.625C338.992 71.1172 340.619 71.3633 342.178 71.3633C342.615 71.4453 342.985 71.6367 343.285 71.9375C343.614 72.2109 343.778 72.498 343.778 72.7988C343.778 73.0996 343.696 73.3457 343.531 73.5371C334.645 85.3496 327.153 95.7676 321.055 104.791C314.957 113.814 311.198 119.912 309.776 123.084C312.647 122.482 316.926 119.051 322.614 112.789C322.86 112.461 323.037 112.242 323.147 112.133C323.256 112.023 323.352 111.914 323.434 111.805C323.899 111.258 324.254 111.6 324.5 112.83C324.61 113.541 324.678 114.047 324.705 114.348C324.76 114.621 324.801 114.922 324.828 115.25C324.883 115.551 324.91 115.756 324.91 115.865ZM357.413 99.7461C358.233 99.7461 359.067 100.115 359.915 100.854C360.79 101.592 361.227 102.727 361.227 104.258C361.227 105.762 360.694 107.73 359.628 110.164C358.561 112.57 357.098 115.031 355.239 117.547C353.38 120.035 351.329 122.387 349.087 124.602C346.872 126.789 344.466 128.594 341.868 130.016C339.298 131.41 336.96 132.107 334.854 132.107C332.749 132.107 331.053 131.451 329.768 130.139C328.51 128.799 327.882 126.953 327.882 124.602C327.882 122.223 328.456 119.598 329.604 116.727C330.78 113.855 332.284 111.326 334.116 109.139C335.948 106.924 337.93 104.941 340.063 103.191C344.52 99.6094 348.43 97.8184 351.794 97.8184C353.298 97.8184 354.432 98.1875 355.198 98.9258C355.471 99.1719 355.608 99.3906 355.608 99.582V99.8281C355.991 99.7734 356.592 99.7461 357.413 99.7461ZM353.27 105.201H352.983C352.026 105.201 351.548 104.504 351.548 103.109C349.551 103.766 347.46 104.914 345.272 106.555C343.085 108.195 341.13 110.137 339.407 112.379C335.907 116.863 334.13 120.65 334.075 123.74C334.075 125.271 334.635 126.037 335.757 126.037C336.878 126.037 338.546 125.299 340.76 123.822C342.975 122.346 345.163 120.24 347.323 117.506C349.51 114.771 351.137 112.406 352.204 110.41C353.298 108.387 353.844 107.02 353.844 106.309C353.844 105.57 353.653 105.201 353.27 105.201ZM390.695 99.7461C391.515 99.7461 392.349 100.115 393.197 100.854C394.072 101.592 394.509 102.727 394.509 104.258C394.509 105.762 393.976 107.73 392.909 110.164C391.843 112.57 390.38 115.031 388.521 117.547C386.661 120.035 384.611 122.387 382.368 124.602C380.154 126.789 377.747 128.594 375.15 130.016C372.579 131.41 370.241 132.107 368.136 132.107C366.03 132.107 364.335 131.451 363.05 130.139C361.792 128.799 361.163 126.953 361.163 124.602C361.163 122.223 361.738 119.598 362.886 116.727C364.062 113.855 365.566 111.326 367.398 109.139C369.23 106.924 371.212 104.941 373.345 103.191C377.802 99.6094 381.712 97.8184 385.075 97.8184C386.579 97.8184 387.714 98.1875 388.48 98.9258C388.753 99.1719 388.89 99.3906 388.89 99.582V99.8281C389.273 99.7734 389.874 99.7461 390.695 99.7461ZM386.552 105.201H386.265C385.308 105.201 384.829 104.504 384.829 103.109C382.833 103.766 380.741 104.914 378.554 106.555C376.366 108.195 374.411 110.137 372.689 112.379C369.189 116.863 367.411 120.65 367.357 123.74C367.357 125.271 367.917 126.037 369.038 126.037C370.159 126.037 371.827 125.299 374.042 123.822C376.257 122.346 378.445 120.24 380.605 117.506C382.792 114.771 384.419 112.406 385.486 110.41C386.579 108.387 387.126 107.02 387.126 106.309C387.126 105.57 386.935 105.201 386.552 105.201ZM409.539 108.646C415.992 101.318 421.488 97.6543 426.027 97.6543C427.148 97.6543 428.064 97.9961 428.775 98.6797C429.513 99.3359 429.883 100.197 429.883 101.264C429.883 102.33 429.117 104.121 427.586 106.637C426.082 109.125 424.687 111.23 423.402 112.953C422.718 113.828 421.939 114.266 421.064 114.266C420.216 114.266 419.547 113.951 419.054 113.322C418.59 112.693 418.357 111.955 418.357 111.107C418.357 109.221 419.369 107.088 421.392 104.709L421.31 104.627C420.408 104.709 418.166 106.486 414.584 109.959C411.029 113.432 407.994 116.549 405.478 119.311C402.99 122.045 400.283 125.381 397.357 129.318C396.509 130.494 395.785 131.082 395.183 131.082C394.609 131.082 393.843 130.904 392.886 130.549C391.902 130.166 391.314 129.893 391.123 129.729C390.904 129.564 390.795 129.291 390.795 128.908C390.795 128.525 390.904 128.088 391.123 127.596C391.341 127.076 391.752 126.352 392.353 125.422C392.927 124.492 393.802 122.988 394.978 120.91C396.181 118.832 398.041 115.688 400.556 111.477C403.072 107.266 404.576 104.723 405.068 103.848C406.107 102.043 406.955 100.73 407.611 99.9102C408.841 98.3516 410.92 97.5723 413.845 97.5723C414.502 97.5723 414.83 97.9824 414.83 98.8027C414.83 100.088 413.64 102.508 411.261 106.062L409.539 108.646ZM432.526 122.797L432.485 123.453C432.485 124.137 432.744 124.725 433.264 125.217C433.783 125.709 434.262 125.955 434.699 125.955C437.981 125.955 440.879 125.463 443.395 124.479C445.938 123.494 447.209 122.51 447.209 121.525C447.209 121.061 446.744 120.664 445.815 120.336C444.912 119.98 443.367 119.557 441.18 119.064C439.02 118.545 437.447 118.148 436.463 117.875C435.479 117.574 434.699 117.301 434.125 117.055C433.551 116.809 432.963 116.467 432.361 116.029C431.076 115.127 430.434 113.787 430.434 112.01C430.434 110.205 431.09 108.428 432.402 106.678C433.742 104.9 435.41 103.383 437.406 102.125C439.402 100.867 441.549 99.7598 443.846 98.8027C448.385 96.916 452.199 95.9727 455.289 95.9727C458.324 95.9727 460.197 96.6289 460.908 97.9414C461.127 98.4062 461.236 98.9258 461.236 99.5V99.7871C461.236 101.236 460.922 102.371 460.293 103.191C459.692 104.012 458.721 104.75 457.381 105.406C456.069 106.062 455.016 106.391 454.223 106.391C453.457 106.391 452.965 106.336 452.746 106.227C452.555 106.117 452.391 105.98 452.254 105.816C452.117 105.625 451.94 105.488 451.721 105.406C451.529 105.324 451.434 105.119 451.434 104.791C451.434 104.463 451.57 104.135 451.844 103.807C452.117 103.451 452.309 103.082 452.418 102.699C450.613 102.781 448.727 103.205 446.758 103.971C444.789 104.709 443.094 105.543 441.672 106.473C440.277 107.402 439.115 108.291 438.186 109.139C437.256 109.986 436.791 110.615 436.791 111.025C436.791 111.408 437.42 111.723 438.678 111.969C444.338 113.09 448.057 114.061 449.834 114.881C451.611 115.701 452.842 116.631 453.526 117.67C454.209 118.709 454.551 119.652 454.551 120.5C454.551 122.25 453.854 123.904 452.459 125.463C451.065 127.021 449.342 128.293 447.291 129.277C442.889 131.438 439.047 132.518 435.766 132.518C432.512 132.518 430.256 132.012 428.998 131C427.768 130.016 427.152 128.84 427.152 127.473C427.152 126.105 427.494 124.848 428.178 123.699C428.889 122.523 429.791 121.936 430.885 121.936C431.979 121.936 432.526 122.223 432.526 122.797Z" fill="#377AD1"/>
</svg>